<svg xmlns="http://www.w3.org/2000/svg" version="1.1" xmlns:xlink="http://www.w3.org/1999/xlink" xmlns:svgjs="http://svgjs.dev/svgjs" width="1500" height="1500" viewBox="0 0 1500 1500"><rect width="1500" height="1500" fill="#ffffff"></rect><g transform="matrix(0.6666666666666666,0,0,0.6666666666666666,249.28401633710774,246.4088507662981)"><svg viewBox="0 0 245 247" data-background-color="#000000" preserveAspectRatio="xMidYMid meet" height="1512" width="1500" xmlns="http://www.w3.org/2000/svg" xmlns:xlink="http://www.w3.org/1999/xlink"><g id="tight-bounds" transform="matrix(1,0,0,1,0.17541599740860647,-0.09997365579206985)"><svg viewBox="0 0 244.6491463291139 247.2" height="247.2" width="244.6491463291139"><g><svg viewBox="0 0 244.6491463291139 247.2" height="247.2" width="244.6491463291139"><g><svg viewBox="0 0 244.6491463291139 247.2" height="247.2" width="244.6491463291139"><g id="textblocktransform"><svg viewBox="0 0 244.6491463291139 247.2" height="247.2" width="244.6491463291139" id="textblock"><g><svg viewBox="0 0 244.6491463291139 247.2" height="247.2" width="244.6491463291139"><path d="M244.076 53.02C242.926 27.36 239.648 20.227 239.648 20.227 229.585-6.202 217.025-0.506 205.742 3.292 185.821 3.446 165.981 9.091 146.107 12.119 104.391 12.581 62.318 4.986 20.81 23.717 16.911 29.464-4.045 24.846 0.694 56.304 1.936 69.39 6.467 83.913 6.329 95.922 6.95 98.026 7.813 93.202 8.181 96.23 9.469 104.39 11.574 100.541 13.299 105.365 10.895 118.246 12.621 128.971 14.265 140.21 11.367 143.135 7.652 141.749 5.984 151.449 5.812 158.479 4.88 157.145 3.856 156.837 3.109 156.632 1.602 157.402 1.855 159.608 2.718 167.152-0.986 171.514 1.338 178.904-0.261 186.91 2.442 193.838 2.074 202.511 2.028 204.255 2.281 205.744 2.683 206.154 4.466 208.361 1.867 212.672 2.143 217.342 20.43 249.262 40.27 227.195 59.006 241.872 63.871 231.608 60.214 245.516 62.157 243.36 63.676 240.846 64.78 251.263 66.494 245.362 66.758 243.668 66.355 239.665 67.299 240.435 67.793 240.846 68.23 240.743 68.299 238.382 68.403 234.841 67.494 237.048 67.253 235.201 69.863 225.861 69.219 248.081 71.669 247.158 71.554 244.438 70.841 240.538 72.302 241.051 73.751 237.151 73.797 233.918 75.085 242.693 75.131 244.592 75.361 245.926 75.729 246.85 79.755 237.305 83.757 250.237 87.978 245.926 90.566 241.205 93.05 248.492 95.673 246.696 96.593 245.259 97.525 242.693 98.41 247.004 109.256 247.928 120.815 244.079 131.097 247.158 158.574 241.41 187.938 249.518 216.91 241.923 223.742 238.998 230.838 234.841 237.498 231.506 237.498 231.506 242.892 222.371 242.892 181.316S244.042 145.393 244.214 112.703C244.387 80.013 245.192 78.679 244.042 53.02Z" opacity="1" fill="#000000" data-fill-palette-color="tertiary"></path><g transform="matrix(1,0,0,1,55.76832,26.230666666666668)"><svg width="133.1125063291139" viewBox="0.5 -22.65 16.2 23.7" height="194.73866666666666" data-palette-color="#000000"><path d="M16.7-6.85L16.7-6.85Q16.7-4.7 15.88-3.1 15.05-1.5 14-0.75 12.95 0 11.5 0.45L11.5 0.45Q9.6 1.05 8.05 1.05L8.05 1.05Q4.8 1.05 2.65-0.23 0.5-1.5 0.5-4.3L0.5-4.3Q0.5-5.95 1.4-7L1.4-7Q2.8-8.55 4.75-8.55L4.75-8.55Q5.35-8.55 5.35-8L5.35-8Q5.35-7.95 5.13-7.23 4.9-6.5 4.9-5.4 4.9-4.3 5.78-3.45 6.65-2.6 7.9-2.6 9.15-2.6 9.9-3.03 10.65-3.45 10.95-4.1L10.95-4.1Q11.4-5 11.4-5.8L11.4-5.8Q11.4-7.25 9.95-8.3 8.5-9.35 6.75-9.95 5-10.55 3.55-11.95 2.1-13.35 2.1-15.45L2.1-15.45Q2.1-19.05 4.38-20.85 6.65-22.65 10.55-22.65L10.55-22.65Q12.25-22.65 14.13-22.18 16-21.7 16-20.58 16-19.45 15.63-18.5 15.25-17.55 14.7-17.55L14.7-17.55Q14.4-17.55 14.3-17.78 14.2-18 13.95-18.3 13.7-18.6 12.75-19.07 11.8-19.55 11.13-19.55 10.45-19.55 10.23-19.53 10-19.5 9.45-19.38 8.9-19.25 8.45-19L8.45-19Q7.3-18.35 7.3-17.1L7.3-17.1Q7.3-16.3 7.65-15.93 8-15.55 8.2-15.35 8.4-15.15 8.9-14.88 9.4-14.6 9.6-14.5 9.8-14.4 10.5-14.08 11.2-13.75 11.4-13.65L11.4-13.65Q16.7-11.15 16.7-6.85Z" opacity="1" transform="matrix(1,0,0,1,0,0)" fill="#ffffff" class="wordmark-text-0" data-fill-palette-color="quaternary" id="text-0"></path></svg></g></svg></g></svg></g></svg></g><g></g></svg></g><defs></defs></svg><rect width="244.6491463291139" height="247.2" fill="none" stroke="none" visibility="hidden"></rect></g></svg></g></svg>